<?xml version="1.0" encoding="UTF-8" standalone="no"?>
<!DOCTYPE svg PUBLIC "-//W3C//DTD SVG 1.1//EN"
 "http://www.w3.org/Graphics/SVG/1.1/DTD/svg11.dtd">
<!-- Generated by graphviz version 14.1.5 (20260411.2331)
 -->
<!-- Title: classes_Dongles Pages: 1 -->
<svg width="6191pt" height="848pt"
 viewBox="0.00 0.00 6191.00 848.00" xmlns="http://www.w3.org/2000/svg" xmlns:xlink="http://www.w3.org/1999/xlink">
<g id="graph0" class="graph" transform="scale(1 1) rotate(0) translate(4 844)">
<title>classes_Dongles</title>
<polygon fill="white" stroke="none" points="-4,4 -4,-844 6186.5,-844 6186.5,4 -4,4"/>
<!-- engine.camera.Camera -->
<g id="node1" class="node">
<title>engine.camera.Camera</title>
<polygon fill="none" stroke="black" points="0,-91.25 0,-230.75 238,-230.75 238,-91.25 0,-91.25"/>
<text xml:space="preserve" text-anchor="start" x="97.62" y="-214" font-family="Times New Roman,serif" font-size="14.00">Camera</text>
<polyline fill="none" stroke="black" points="0,-206.25 238,-206.25"/>
<text xml:space="preserve" text-anchor="start" x="41.75" y="-189.5" font-family="Times New Roman,serif" font-size="14.00">player_offset_from_top : int</text>
<text xml:space="preserve" text-anchor="start" x="41.75" y="-173" font-family="Times New Roman,serif" font-size="14.00">screen_height : int</text>
<text xml:space="preserve" text-anchor="start" x="41.75" y="-156.5" font-family="Times New Roman,serif" font-size="14.00">y_top : float</text>
<polyline fill="none" stroke="black" points="0,-148.75 238,-148.75"/>
<text xml:space="preserve" text-anchor="start" x="8" y="-132" font-family="Times New Roman,serif" font-size="14.00">follow(player_world_y: float): None</text>
<text xml:space="preserve" text-anchor="start" x="8" y="-115.5" font-family="Times New Roman,serif" font-size="14.00">is_below_screen(world_y: float): bool</text>
<text xml:space="preserve" text-anchor="start" x="8" y="-99" font-family="Times New Roman,serif" font-size="14.00">world_to_screen_y(world_y: float): float</text>
</g>
<!-- scenes.game.GameScene -->
<g id="node11" class="node">
<title>scenes.game.GameScene</title>
<polygon fill="none" stroke="black" points="255.88,-375 255.88,-646.5 538.12,-646.5 538.12,-375 255.88,-375"/>
<text xml:space="preserve" text-anchor="start" x="364.38" y="-629.75" font-family="Times New Roman,serif" font-size="14.00">GameScene</text>
<polyline fill="none" stroke="black" points="255.88,-622 538.12,-622"/>
<text xml:space="preserve" text-anchor="start" x="341.5" y="-605.25" font-family="Times New Roman,serif" font-size="14.00">camera</text>
<text xml:space="preserve" text-anchor="start" x="341.5" y="-588.75" font-family="Times New Roman,serif" font-size="14.00">chunks : list[Chunk]</text>
<text xml:space="preserve" text-anchor="start" x="341.5" y="-572.25" font-family="Times New Roman,serif" font-size="14.00">dead : bool</text>
<text xml:space="preserve" text-anchor="start" x="341.5" y="-555.75" font-family="Times New Roman,serif" font-size="14.00">hazards : list</text>
<text xml:space="preserve" text-anchor="start" x="341.5" y="-539.25" font-family="Times New Roman,serif" font-size="14.00">input</text>
<text xml:space="preserve" text-anchor="start" x="341.5" y="-522.75" font-family="Times New Roman,serif" font-size="14.00">items : list</text>
<text xml:space="preserve" text-anchor="start" x="341.5" y="-506.25" font-family="Times New Roman,serif" font-size="14.00">player</text>
<text xml:space="preserve" text-anchor="start" x="341.5" y="-489.75" font-family="Times New Roman,serif" font-size="14.00">rng : Random</text>
<text xml:space="preserve" text-anchor="start" x="341.5" y="-473.25" font-family="Times New Roman,serif" font-size="14.00">tuna_count : int</text>
<polyline fill="none" stroke="black" points="255.88,-465.5 538.12,-465.5"/>
<text xml:space="preserve" text-anchor="start" x="263.88" y="-448.75" font-family="Times New Roman,serif" font-size="14.00">active_powerups(): list[tuple[str, float]]</text>
<text xml:space="preserve" text-anchor="start" x="263.88" y="-432.25" font-family="Times New Roman,serif" font-size="14.00">begin_frame(): None</text>
<text xml:space="preserve" text-anchor="start" x="263.88" y="-415.75" font-family="Times New Roman,serif" font-size="14.00">draw(window: pygame.Surface): None</text>
<text xml:space="preserve" text-anchor="start" x="263.88" y="-399.25" font-family="Times New Roman,serif" font-size="14.00">handle_event(event: pygame.event.Event): None</text>
<text xml:space="preserve" text-anchor="start" x="263.88" y="-382.75" font-family="Times New Roman,serif" font-size="14.00">update(dt: float): None</text>
</g>
<!-- engine.camera.Camera&#45;&gt;scenes.game.GameScene -->
<g id="edge17" class="edge">
<title>engine.camera.Camera&#45;&gt;scenes.game.GameScene</title>
<path fill="none" stroke="black" d="M174.26,-231.12C204.79,-269.32 243.93,-318.27 280.85,-364.46"/>
<polygon fill="black" stroke="black" points="280.88,-364.5 287.75,-366.69 288.37,-373.87 281.5,-371.68 280.88,-364.5"/>
<text xml:space="preserve" text-anchor="middle" x="286.21" y="-343.2" font-family="Times New Roman,serif" font-size="14.00" fill="green">camera</text>
</g>
<!-- entities.items.Catnip -->
<g id="node2" class="node">
<title>entities.items.Catnip</title>
<polygon fill="none" stroke="black" points="726.5,-116 726.5,-206 997.5,-206 997.5,-116 726.5,-116"/>
<text xml:space="preserve" text-anchor="start" x="844" y="-189.25" font-family="Times New Roman,serif" font-size="14.00">Catnip</text>
<polyline fill="none" stroke="black" points="726.5,-181.5 997.5,-181.5"/>
<text xml:space="preserve" text-anchor="start" x="837.62" y="-164.75" font-family="Times New Roman,serif" font-size="14.00">kind : str</text>
<polyline fill="none" stroke="black" points="726.5,-157 997.5,-157"/>
<text xml:space="preserve" text-anchor="start" x="734.5" y="-140.25" font-family="Times New Roman,serif" font-size="14.00">apply(player): int</text>
<text xml:space="preserve" text-anchor="start" x="734.5" y="-123.75" font-family="Times New Roman,serif" font-size="14.00">draw(surface: pygame.Surface, camera): None</text>
</g>
<!-- entities.items.Item -->
<g id="node16" class="node">
<title>entities.items.Item</title>
<polygon fill="none" stroke="black" points="1159.5,-408 1159.5,-613.5 1430.5,-613.5 1430.5,-408 1159.5,-408"/>
<text xml:space="preserve" text-anchor="start" x="1282.25" y="-596.75" font-family="Times New Roman,serif" font-size="14.00">Item</text>
<polyline fill="none" stroke="black" points="1159.5,-589 1430.5,-589"/>
<text xml:space="preserve" text-anchor="start" x="1264.62" y="-572.25" font-family="Times New Roman,serif" font-size="14.00">dead : bool</text>
<text xml:space="preserve" text-anchor="start" x="1264.62" y="-555.75" font-family="Times New Roman,serif" font-size="14.00">h : int</text>
<text xml:space="preserve" text-anchor="start" x="1264.62" y="-539.25" font-family="Times New Roman,serif" font-size="14.00">kind : str</text>
<text xml:space="preserve" text-anchor="start" x="1264.62" y="-522.75" font-family="Times New Roman,serif" font-size="14.00">rect : Rect</text>
<text xml:space="preserve" text-anchor="start" x="1264.62" y="-506.25" font-family="Times New Roman,serif" font-size="14.00">w : int</text>
<text xml:space="preserve" text-anchor="start" x="1264.62" y="-489.75" font-family="Times New Roman,serif" font-size="14.00">x : float</text>
<text xml:space="preserve" text-anchor="start" x="1264.62" y="-473.25" font-family="Times New Roman,serif" font-size="14.00">y : float</text>
<polyline fill="none" stroke="black" points="1159.5,-465.5 1430.5,-465.5"/>
<text xml:space="preserve" text-anchor="start" x="1167.5" y="-448.75" font-family="Times New Roman,serif" font-size="14.00">apply(player): int</text>
<text xml:space="preserve" text-anchor="start" x="1167.5" y="-432.25" font-family="Times New Roman,serif" font-size="14.00">draw(surface: pygame.Surface, camera): None</text>
<text xml:space="preserve" text-anchor="start" x="1167.5" y="-415.75" font-family="Times New Roman,serif" font-size="14.00">update(dt: float, camera): None</text>
</g>
<!-- entities.items.Catnip&#45;&gt;entities.items.Item -->
<g id="edge7" class="edge">
<title>entities.items.Catnip&#45;&gt;entities.items.Item</title>
<path fill="none" stroke="black" d="M896.5,-206.3C924.08,-240.14 964.8,-286.8 1006,-322 1050.03,-359.62 1102.08,-395.64 1149.8,-425.88"/>
<polygon fill="none" stroke="black" points="1147.67,-428.68 1158,-431.04 1151.4,-422.75 1147.67,-428.68"/>
</g>
<!-- world.generator.Chunk -->
<g id="node3" class="node">
<title>world.generator.Chunk</title>
<polygon fill="none" stroke="black" points="276.12,-700 276.12,-839.5 517.88,-839.5 517.88,-700 276.12,-700"/>
<text xml:space="preserve" text-anchor="start" x="379" y="-822.75" font-family="Times New Roman,serif" font-size="14.00">Chunk</text>
<polyline fill="none" stroke="black" points="276.12,-815 517.88,-815"/>
<text xml:space="preserve" text-anchor="start" x="284.12" y="-798.25" font-family="Times New Roman,serif" font-size="14.00">hazard_requests : list[tuple[str, float]]</text>
<text xml:space="preserve" text-anchor="start" x="284.12" y="-781.75" font-family="Times New Roman,serif" font-size="14.00">item_requests : list[tuple[str, float, float]]</text>
<text xml:space="preserve" text-anchor="start" x="284.12" y="-765.25" font-family="Times New Roman,serif" font-size="14.00">platforms : list</text>
<text xml:space="preserve" text-anchor="start" x="284.12" y="-748.75" font-family="Times New Roman,serif" font-size="14.00">y_end : int</text>
<text xml:space="preserve" text-anchor="start" x="284.12" y="-732.25" font-family="Times New Roman,serif" font-size="14.00">y_start : int</text>
<polyline fill="none" stroke="black" points="276.12,-724.5 517.88,-724.5"/>
<text xml:space="preserve" text-anchor="start" x="395.12" y="-707.75" font-family="Times New Roman,serif" font-size="14.00"> </text>
</g>
<!-- entities.hazards.Crow -->
<g id="node4" class="node">
<title>entities.hazards.Crow</title>
<polygon fill="none" stroke="black" points="1882.5,-91.25 1882.5,-230.75 2153.5,-230.75 2153.5,-91.25 1882.5,-91.25"/>
<text xml:space="preserve" text-anchor="start" x="2003" y="-214" font-family="Times New Roman,serif" font-size="14.00">Crow</text>
<polyline fill="none" stroke="black" points="1882.5,-206.25 2153.5,-206.25"/>
<text xml:space="preserve" text-anchor="start" x="1993.25" y="-189.5" font-family="Times New Roman,serif" font-size="14.00">kind : str</text>
<text xml:space="preserve" text-anchor="start" x="1993.25" y="-173" font-family="Times New Roman,serif" font-size="14.00">vx : float</text>
<text xml:space="preserve" text-anchor="start" x="1993.25" y="-156.5" font-family="Times New Roman,serif" font-size="14.00">x</text>
<text xml:space="preserve" text-anchor="start" x="1993.25" y="-140" font-family="Times New Roman,serif" font-size="14.00">y</text>
<polyline fill="none" stroke="black" points="1882.5,-132.25 2153.5,-132.25"/>
<text xml:space="preserve" text-anchor="start" x="1890.5" y="-115.5" font-family="Times New Roman,serif" font-size="14.00">draw(surface: pygame.Surface, camera): None</text>
<text xml:space="preserve" text-anchor="start" x="1890.5" y="-99" font-family="Times New Roman,serif" font-size="14.00">update(dt: float, camera): None</text>
</g>
<!-- entities.hazards.Hazard -->
<g id="node13" class="node">
<title>entities.hazards.Hazard</title>
<polygon fill="none" stroke="black" points="2604.5,-408 2604.5,-613.5 2875.5,-613.5 2875.5,-408 2604.5,-408"/>
<text xml:space="preserve" text-anchor="start" x="2720.5" y="-596.75" font-family="Times New Roman,serif" font-size="14.00">Hazard</text>
<polyline fill="none" stroke="black" points="2604.5,-589 2875.5,-589"/>
<text xml:space="preserve" text-anchor="start" x="2707.38" y="-572.25" font-family="Times New Roman,serif" font-size="14.00">dead : bool</text>
<text xml:space="preserve" text-anchor="start" x="2707.38" y="-555.75" font-family="Times New Roman,serif" font-size="14.00">h : float</text>
<text xml:space="preserve" text-anchor="start" x="2707.38" y="-539.25" font-family="Times New Roman,serif" font-size="14.00">kind : str</text>
<text xml:space="preserve" text-anchor="start" x="2707.38" y="-522.75" font-family="Times New Roman,serif" font-size="14.00">lethal : bool</text>
<text xml:space="preserve" text-anchor="start" x="2707.38" y="-506.25" font-family="Times New Roman,serif" font-size="14.00">rect : Rect</text>
<text xml:space="preserve" text-anchor="start" x="2707.38" y="-489.75" font-family="Times New Roman,serif" font-size="14.00">w : float</text>
<text xml:space="preserve" text-anchor="start" x="2707.38" y="-473.25" font-family="Times New Roman,serif" font-size="14.00">x : float</text>
<text xml:space="preserve" text-anchor="start" x="2707.38" y="-456.75" font-family="Times New Roman,serif" font-size="14.00">y : float</text>
<polyline fill="none" stroke="black" points="2604.5,-449 2875.5,-449"/>
<text xml:space="preserve" text-anchor="start" x="2612.5" y="-432.25" font-family="Times New Roman,serif" font-size="14.00">draw(surface: pygame.Surface, camera): None</text>
<text xml:space="preserve" text-anchor="start" x="2612.5" y="-415.75" font-family="Times New Roman,serif" font-size="14.00">update(dt: float, camera): None</text>
</g>
<!-- entities.hazards.Crow&#45;&gt;entities.hazards.Hazard -->
<g id="edge1" class="edge">
<title>entities.hazards.Crow&#45;&gt;entities.hazards.Hazard</title>
<path fill="none" stroke="black" d="M2066.83,-231.22C2092.1,-262.72 2125.33,-298.18 2162,-322 2294.81,-408.26 2470.58,-457.91 2593.27,-484.23"/>
<polygon fill="none" stroke="black" points="2592.25,-487.59 2602.75,-486.23 2593.7,-480.74 2592.25,-487.59"/>
</g>
<!-- world.difficulty.DifficultyParams -->
<g id="node5" class="node">
<title>world.difficulty.DifficultyParams</title>
<polygon fill="none" stroke="black" points="3616.75,-99.5 3616.75,-222.5 3781.25,-222.5 3781.25,-99.5 3616.75,-99.5"/>
<text xml:space="preserve" text-anchor="start" x="3652.12" y="-205.75" font-family="Times New Roman,serif" font-size="14.00">DifficultyParams</text>
<polyline fill="none" stroke="black" points="3616.75,-198 3781.25,-198"/>
<text xml:space="preserve" text-anchor="start" x="3624.75" y="-181.25" font-family="Times New Roman,serif" font-size="14.00">hazard_density : float</text>
<text xml:space="preserve" text-anchor="start" x="3624.75" y="-164.75" font-family="Times New Roman,serif" font-size="14.00">hazard_pool : tuple[str, ...]</text>
<text xml:space="preserve" text-anchor="start" x="3624.75" y="-148.25" font-family="Times New Roman,serif" font-size="14.00">platforms_per_chunk : int</text>
<text xml:space="preserve" text-anchor="start" x="3624.75" y="-131.75" font-family="Times New Roman,serif" font-size="14.00">risky_platform_ratio : float</text>
<polyline fill="none" stroke="black" points="3616.75,-124 3781.25,-124"/>
<text xml:space="preserve" text-anchor="start" x="3697.12" y="-107.25" font-family="Times New Roman,serif" font-size="14.00"> </text>
</g>
<!-- entities.platforms.DisappearingPlatform -->
<g id="node6" class="node">
<title>entities.platforms.DisappearingPlatform</title>
<polygon fill="none" stroke="black" points="3799.5,-107.75 3799.5,-214.25 4070.5,-214.25 4070.5,-107.75 3799.5,-107.75"/>
<text xml:space="preserve" text-anchor="start" x="3875" y="-197.5" font-family="Times New Roman,serif" font-size="14.00">DisappearingPlatform</text>
<polyline fill="none" stroke="black" points="3799.5,-189.75 4070.5,-189.75"/>
<text xml:space="preserve" text-anchor="start" x="3904.25" y="-173" font-family="Times New Roman,serif" font-size="14.00">gone : bool</text>
<polyline fill="none" stroke="black" points="3799.5,-165.25 4070.5,-165.25"/>
<text xml:space="preserve" text-anchor="start" x="3807.5" y="-148.5" font-family="Times New Roman,serif" font-size="14.00">draw(surface: pygame.Surface, camera): None</text>
<text xml:space="preserve" text-anchor="start" x="3807.5" y="-132" font-family="Times New Roman,serif" font-size="14.00">on_landed(player): None</text>
<text xml:space="preserve" text-anchor="start" x="3807.5" y="-115.5" font-family="Times New Roman,serif" font-size="14.00">update(dt: float): None</text>
</g>
<!-- entities.platforms.StandardPlatform -->
<g id="node23" class="node">
<title>entities.platforms.StandardPlatform</title>
<polygon fill="none" stroke="black" points="4377.5,-420 4377.5,-601.5 4648.5,-601.5 4648.5,-420 4377.5,-420"/>
<text xml:space="preserve" text-anchor="start" x="4465" y="-584.75" font-family="Times New Roman,serif" font-size="14.00">StandardPlatform</text>
<polyline fill="none" stroke="black" points="4377.5,-577 4648.5,-577"/>
<text xml:space="preserve" text-anchor="start" x="4484.88" y="-560.25" font-family="Times New Roman,serif" font-size="14.00">h : float</text>
<text xml:space="preserve" text-anchor="start" x="4484.88" y="-543.75" font-family="Times New Roman,serif" font-size="14.00">rect : Rect</text>
<text xml:space="preserve" text-anchor="start" x="4484.88" y="-527.25" font-family="Times New Roman,serif" font-size="14.00">top : float</text>
<text xml:space="preserve" text-anchor="start" x="4484.88" y="-510.75" font-family="Times New Roman,serif" font-size="14.00">w : float</text>
<text xml:space="preserve" text-anchor="start" x="4484.88" y="-494.25" font-family="Times New Roman,serif" font-size="14.00">x : float</text>
<text xml:space="preserve" text-anchor="start" x="4484.88" y="-477.75" font-family="Times New Roman,serif" font-size="14.00">y : float</text>
<polyline fill="none" stroke="black" points="4377.5,-470 4648.5,-470"/>
<text xml:space="preserve" text-anchor="start" x="4385.5" y="-453.7" font-family="Times New Roman,serif" font-size="14.00">draw(surface: pygame.Surface, camera): None</text>
<text xml:space="preserve" text-anchor="start" x="4385.5" y="-439.7" font-family="Times New Roman,serif" font-style="italic" font-size="14.00">on_landed</text>
<text xml:space="preserve" text-anchor="start" x="4442.5" y="-439.7" font-family="Times New Roman,serif" font-size="14.00">(player): None</text>
<text xml:space="preserve" text-anchor="start" x="4385.5" y="-425.7" font-family="Times New Roman,serif" font-style="italic" font-size="14.00">update</text>
<text xml:space="preserve" text-anchor="start" x="4422.25" y="-425.7" font-family="Times New Roman,serif" font-size="14.00">(dt: float): None</text>
</g>
<!-- entities.platforms.DisappearingPlatform&#45;&gt;entities.platforms.StandardPlatform -->
<g id="edge11" class="edge">
<title>entities.platforms.DisappearingPlatform&#45;&gt;entities.platforms.StandardPlatform</title>
<path fill="none" stroke="black" d="M3972.76,-214.58C3999.39,-248.72 4037.58,-292.23 4079,-322 4166.44,-384.84 4278.22,-432.58 4366.43,-464.19"/>
<polygon fill="none" stroke="black" points="4365.05,-467.41 4375.64,-467.46 4367.39,-460.81 4365.05,-467.41"/>
</g>
<!-- entities.hazards.Dog -->
<g id="node7" class="node">
<title>entities.hazards.Dog</title>
<polygon fill="none" stroke="black" points="2171.5,-124.25 2171.5,-197.75 2442.5,-197.75 2442.5,-124.25 2171.5,-124.25"/>
<text xml:space="preserve" text-anchor="start" x="2295.38" y="-181" font-family="Times New Roman,serif" font-size="14.00">Dog</text>
<polyline fill="none" stroke="black" points="2171.5,-173.25 2442.5,-173.25"/>
<text xml:space="preserve" text-anchor="start" x="2282.62" y="-156.5" font-family="Times New Roman,serif" font-size="14.00">kind : str</text>
<polyline fill="none" stroke="black" points="2171.5,-148.75 2442.5,-148.75"/>
<text xml:space="preserve" text-anchor="start" x="2179.5" y="-132" font-family="Times New Roman,serif" font-size="14.00">draw(surface: pygame.Surface, camera): None</text>
</g>
<!-- entities.hazards.Dog&#45;&gt;entities.hazards.Hazard -->
<g id="edge2" class="edge">
<title>entities.hazards.Dog&#45;&gt;entities.hazards.Hazard</title>
<path fill="none" stroke="black" d="M2334.94,-198.18C2362.34,-232.34 2406.39,-283.89 2451,-322 2495.03,-359.62 2547.08,-395.64 2594.8,-425.88"/>
<polygon fill="none" stroke="black" points="2592.67,-428.68 2603,-431.04 2596.4,-422.75 2592.67,-428.68"/>
</g>
<!-- entities.items.Feather -->
<g id="node8" class="node">
<title>entities.items.Feather</title>
<polygon fill="none" stroke="black" points="1015.5,-116 1015.5,-206 1286.5,-206 1286.5,-116 1015.5,-116"/>
<text xml:space="preserve" text-anchor="start" x="1130.75" y="-189.25" font-family="Times New Roman,serif" font-size="14.00">Feather</text>
<polyline fill="none" stroke="black" points="1015.5,-181.5 1286.5,-181.5"/>
<text xml:space="preserve" text-anchor="start" x="1126.62" y="-164.75" font-family="Times New Roman,serif" font-size="14.00">kind : str</text>
<polyline fill="none" stroke="black" points="1015.5,-157 1286.5,-157"/>
<text xml:space="preserve" text-anchor="start" x="1023.5" y="-140.25" font-family="Times New Roman,serif" font-size="14.00">apply(player): int</text>
<text xml:space="preserve" text-anchor="start" x="1023.5" y="-123.75" font-family="Times New Roman,serif" font-size="14.00">draw(surface: pygame.Surface, camera): None</text>
</g>
<!-- entities.items.Feather&#45;&gt;entities.items.Item -->
<g id="edge8" class="edge">
<title>entities.items.Feather&#45;&gt;entities.items.Item</title>
<path fill="none" stroke="black" d="M1169.38,-206.4C1189.21,-254.28 1221.56,-332.39 1248.46,-397.35"/>
<polygon fill="none" stroke="black" points="1245.09,-398.36 1252.15,-406.26 1251.55,-395.68 1245.09,-398.36"/>
</g>
<!-- entities.items.Fish -->
<g id="node9" class="node">
<title>entities.items.Fish</title>
<polygon fill="none" stroke="black" points="1304.5,-116 1304.5,-206 1575.5,-206 1575.5,-116 1304.5,-116"/>
<text xml:space="preserve" text-anchor="start" x="1428.38" y="-189.25" font-family="Times New Roman,serif" font-size="14.00">Fish</text>
<polyline fill="none" stroke="black" points="1304.5,-181.5 1575.5,-181.5"/>
<text xml:space="preserve" text-anchor="start" x="1415.62" y="-164.75" font-family="Times New Roman,serif" font-size="14.00">kind : str</text>
<polyline fill="none" stroke="black" points="1304.5,-157 1575.5,-157"/>
<text xml:space="preserve" text-anchor="start" x="1312.5" y="-140.25" font-family="Times New Roman,serif" font-size="14.00">apply(player): int</text>
<text xml:space="preserve" text-anchor="start" x="1312.5" y="-123.75" font-family="Times New Roman,serif" font-size="14.00">draw(surface: pygame.Surface, camera): None</text>
</g>
<!-- entities.items.Fish&#45;&gt;entities.items.Item -->
<g id="edge9" class="edge">
<title>entities.items.Fish&#45;&gt;entities.items.Item</title>
<path fill="none" stroke="black" d="M1421.49,-206.4C1401.52,-254.28 1368.95,-332.39 1341.87,-397.35"/>
<polygon fill="none" stroke="black" points="1338.77,-395.69 1338.15,-406.26 1345.23,-398.38 1338.77,-395.69"/>
</g>
<!-- scenes.gameover.GameOverScene -->
<g id="node10" class="node">
<title>scenes.gameover.GameOverScene</title>
<polygon fill="none" stroke="black" points="5244.88,-63.25 5244.88,-258.75 5527.12,-258.75 5527.12,-63.25 5244.88,-63.25"/>
<text xml:space="preserve" text-anchor="start" x="5339.88" y="-242" font-family="Times New Roman,serif" font-size="14.00">GameOverScene</text>
<polyline fill="none" stroke="black" points="5244.88,-234.25 5527.12,-234.25"/>
<text xml:space="preserve" text-anchor="start" x="5322.25" y="-217.5" font-family="Times New Roman,serif" font-size="14.00">altitude_m</text>
<text xml:space="preserve" text-anchor="start" x="5322.25" y="-201" font-family="Times New Roman,serif" font-size="14.00">best_m</text>
<text xml:space="preserve" text-anchor="start" x="5322.25" y="-184.5" font-family="Times New Roman,serif" font-size="14.00">font_huge : Font</text>
<text xml:space="preserve" text-anchor="start" x="5322.25" y="-168" font-family="Times New Roman,serif" font-size="14.00">font_med : Font</text>
<text xml:space="preserve" text-anchor="start" x="5322.25" y="-151.5" font-family="Times New Roman,serif" font-size="14.00">new_record</text>
<text xml:space="preserve" text-anchor="start" x="5322.25" y="-135" font-family="Times New Roman,serif" font-size="14.00">restart_requested : bool</text>
<polyline fill="none" stroke="black" points="5244.88,-127.25 5527.12,-127.25"/>
<text xml:space="preserve" text-anchor="start" x="5252.88" y="-110.95" font-family="Times New Roman,serif" font-style="italic" font-size="14.00">begin_frame</text>
<text xml:space="preserve" text-anchor="start" x="5321.12" y="-110.95" font-family="Times New Roman,serif" font-size="14.00">(): None</text>
<text xml:space="preserve" text-anchor="start" x="5252.88" y="-96.95" font-family="Times New Roman,serif" font-size="14.00">draw(window: pygame.Surface): None</text>
<text xml:space="preserve" text-anchor="start" x="5252.88" y="-82.95" font-family="Times New Roman,serif" font-size="14.00">handle_event(event: pygame.event.Event): None</text>
<text xml:space="preserve" text-anchor="start" x="5252.88" y="-68.95" font-family="Times New Roman,serif" font-style="italic" font-size="14.00">update</text>
<text xml:space="preserve" text-anchor="start" x="5289.62" y="-68.95" font-family="Times New Roman,serif" font-size="14.00">(dt: float): None</text>
</g>
<!-- scenes.game.GameScene&#45;&gt;world.generator.Chunk -->
<g id="edge16" class="edge">
<title>scenes.game.GameScene&#45;&gt;world.generator.Chunk</title>
<path fill="none" stroke="black" d="M397,-646.65C397,-660.94 397,-675.13 397,-688.51"/>
<polygon fill="black" stroke="black" points="397,-698.32 392.5,-688.32 397,-694.54 397,-688.32 397,-688.32 397,-688.32 397,-694.54 401.5,-688.32 397,-698.32"/>
<text xml:space="preserve" text-anchor="middle" x="416.12" y="-668.2" font-family="Times New Roman,serif" font-size="14.00" fill="green">chunks</text>
</g>
<!-- entities.platforms.HammockPlatform -->
<g id="node12" class="node">
<title>entities.platforms.HammockPlatform</title>
<polygon fill="none" stroke="black" points="4088.5,-136.5 4088.5,-185.5 4359.5,-185.5 4359.5,-136.5 4088.5,-136.5"/>
<text xml:space="preserve" text-anchor="start" x="4171.12" y="-168.75" font-family="Times New Roman,serif" font-size="14.00">HammockPlatform</text>
<polyline fill="none" stroke="black" points="4088.5,-161 4359.5,-161"/>
<polyline fill="none" stroke="black" points="4088.5,-161 4359.5,-161"/>
<text xml:space="preserve" text-anchor="start" x="4096.5" y="-144.25" font-family="Times New Roman,serif" font-size="14.00">draw(surface: pygame.Surface, camera): None</text>
</g>
<!-- entities.platforms.HammockPlatform&#45;&gt;entities.platforms.StandardPlatform -->
<g id="edge12" class="edge">
<title>entities.platforms.HammockPlatform&#45;&gt;entities.platforms.StandardPlatform</title>
<path fill="none" stroke="black" d="M4243.86,-185.9C4281.81,-231.56 4366.54,-333.51 4430.87,-410.92"/>
<polygon fill="none" stroke="black" points="4428.16,-413.14 4437.24,-418.59 4433.54,-408.66 4428.16,-413.14"/>
</g>
<!-- scenes._hud.Hud -->
<g id="node14" class="node">
<title>scenes._hud.Hud</title>
<polygon fill="none" stroke="black" points="5544.88,-107.75 5544.88,-214.25 5773.12,-214.25 5773.12,-107.75 5544.88,-107.75"/>
<text xml:space="preserve" text-anchor="start" x="5647.38" y="-197.5" font-family="Times New Roman,serif" font-size="14.00">Hud</text>
<polyline fill="none" stroke="black" points="5544.88,-189.75 5773.12,-189.75"/>
<text xml:space="preserve" text-anchor="start" x="5611.75" y="-173" font-family="Times New Roman,serif" font-size="14.00">font_large : Font</text>
<text xml:space="preserve" text-anchor="start" x="5611.75" y="-156.5" font-family="Times New Roman,serif" font-size="14.00">font_med : Font</text>
<text xml:space="preserve" text-anchor="start" x="5611.75" y="-140" font-family="Times New Roman,serif" font-size="14.00">font_small : Font</text>
<polyline fill="none" stroke="black" points="5544.88,-132.25 5773.12,-132.25"/>
<text xml:space="preserve" text-anchor="start" x="5552.88" y="-115.5" font-family="Times New Roman,serif" font-size="14.00">draw(window: pygame.Surface): None</text>
</g>
<!-- engine.input.InputState -->
<g id="node15" class="node">
<title>engine.input.InputState</title>
<polygon fill="none" stroke="black" points="255.88,-111.75 255.88,-210.25 538.12,-210.25 538.12,-111.75 255.88,-111.75"/>
<text xml:space="preserve" text-anchor="start" x="369.25" y="-193.5" font-family="Times New Roman,serif" font-size="14.00">InputState</text>
<polyline fill="none" stroke="black" points="255.88,-185.75 538.12,-185.75"/>
<polyline fill="none" stroke="black" points="255.88,-185.75 538.12,-185.75"/>
<text xml:space="preserve" text-anchor="start" x="263.88" y="-169" font-family="Times New Roman,serif" font-size="14.00">begin_frame(): None</text>
<text xml:space="preserve" text-anchor="start" x="263.88" y="-152.5" font-family="Times New Roman,serif" font-size="14.00">handle_event(event: pygame.event.Event): None</text>
<text xml:space="preserve" text-anchor="start" x="263.88" y="-136" font-family="Times New Roman,serif" font-size="14.00">is_held(key: int): bool</text>
<text xml:space="preserve" text-anchor="start" x="263.88" y="-119.5" font-family="Times New Roman,serif" font-size="14.00">was_pressed(key: int): bool</text>
</g>
<!-- engine.input.InputState&#45;&gt;scenes.game.GameScene -->
<g id="edge18" class="edge">
<title>engine.input.InputState&#45;&gt;scenes.game.GameScene</title>
<path fill="none" stroke="black" d="M397,-210.72C397,-250.09 397,-307.67 397,-361.82"/>
<polygon fill="black" stroke="black" points="397,-361.86 401,-367.86 397,-373.86 393,-367.86 397,-361.86"/>
<text xml:space="preserve" text-anchor="middle" x="410.88" y="-343.2" font-family="Times New Roman,serif" font-size="14.00" fill="green">input</text>
</g>
<!-- scenes.menu.MenuScene -->
<g id="node17" class="node">
<title>scenes.menu.MenuScene</title>
<polygon fill="none" stroke="black" points="5790.88,-79.75 5790.88,-242.25 6073.12,-242.25 6073.12,-79.75 5790.88,-79.75"/>
<text xml:space="preserve" text-anchor="start" x="5899.75" y="-225.5" font-family="Times New Roman,serif" font-size="14.00">MenuScene</text>
<polyline fill="none" stroke="black" points="5790.88,-217.75 6073.12,-217.75"/>
<text xml:space="preserve" text-anchor="start" x="5873.5" y="-201" font-family="Times New Roman,serif" font-size="14.00">best_m</text>
<text xml:space="preserve" text-anchor="start" x="5873.5" y="-184.5" font-family="Times New Roman,serif" font-size="14.00">font_med : Font</text>
<text xml:space="preserve" text-anchor="start" x="5873.5" y="-168" font-family="Times New Roman,serif" font-size="14.00">font_title : Font</text>
<text xml:space="preserve" text-anchor="start" x="5873.5" y="-151.5" font-family="Times New Roman,serif" font-size="14.00">start_requested : bool</text>
<polyline fill="none" stroke="black" points="5790.88,-143.75 6073.12,-143.75"/>
<text xml:space="preserve" text-anchor="start" x="5798.88" y="-127.45" font-family="Times New Roman,serif" font-style="italic" font-size="14.00">begin_frame</text>
<text xml:space="preserve" text-anchor="start" x="5867.12" y="-127.45" font-family="Times New Roman,serif" font-size="14.00">(): None</text>
<text xml:space="preserve" text-anchor="start" x="5798.88" y="-113.45" font-family="Times New Roman,serif" font-size="14.00">draw(window: pygame.Surface): None</text>
<text xml:space="preserve" text-anchor="start" x="5798.88" y="-99.45" font-family="Times New Roman,serif" font-size="14.00">handle_event(event: pygame.event.Event): None</text>
<text xml:space="preserve" text-anchor="start" x="5798.88" y="-85.45" font-family="Times New Roman,serif" font-style="italic" font-size="14.00">update</text>
<text xml:space="preserve" text-anchor="start" x="5835.62" y="-85.45" font-family="Times New Roman,serif" font-size="14.00">(dt: float): None</text>
</g>
<!-- entities.hazards.Mouse -->
<g id="node18" class="node">
<title>entities.hazards.Mouse</title>
<polygon fill="none" stroke="black" points="2460.5,-99.5 2460.5,-222.5 2731.5,-222.5 2731.5,-99.5 2460.5,-99.5"/>
<text xml:space="preserve" text-anchor="start" x="2577.25" y="-205.75" font-family="Times New Roman,serif" font-size="14.00">Mouse</text>
<polyline fill="none" stroke="black" points="2460.5,-198 2731.5,-198"/>
<text xml:space="preserve" text-anchor="start" x="2571.25" y="-181.25" font-family="Times New Roman,serif" font-size="14.00">kind : str</text>
<text xml:space="preserve" text-anchor="start" x="2571.25" y="-164.75" font-family="Times New Roman,serif" font-size="14.00">vx : float</text>
<text xml:space="preserve" text-anchor="start" x="2571.25" y="-148.25" font-family="Times New Roman,serif" font-size="14.00">x</text>
<polyline fill="none" stroke="black" points="2460.5,-140.5 2731.5,-140.5"/>
<text xml:space="preserve" text-anchor="start" x="2468.5" y="-123.75" font-family="Times New Roman,serif" font-size="14.00">draw(surface: pygame.Surface, camera): None</text>
<text xml:space="preserve" text-anchor="start" x="2468.5" y="-107.25" font-family="Times New Roman,serif" font-size="14.00">update(dt: float, camera): None</text>
</g>
<!-- entities.hazards.Mouse&#45;&gt;entities.hazards.Hazard -->
<g id="edge3" class="edge">
<title>entities.hazards.Mouse&#45;&gt;entities.hazards.Hazard</title>
<path fill="none" stroke="black" d="M2621.25,-222.97C2641.15,-271.02 2669.44,-339.35 2693.41,-397.25"/>
<polygon fill="none" stroke="black" points="2690.05,-398.26 2697.11,-406.16 2696.51,-395.58 2690.05,-398.26"/>
</g>
<!-- entities.player.Player -->
<g id="node19" class="node">
<title>entities.player.Player</title>
<polygon fill="none" stroke="black" points="555.75,-0.5 555.75,-321.5 708.25,-321.5 708.25,-0.5 555.75,-0.5"/>
<text xml:space="preserve" text-anchor="start" x="614.75" y="-304.75" font-family="Times New Roman,serif" font-size="14.00">Player</text>
<polyline fill="none" stroke="black" points="555.75,-297 708.25,-297"/>
<text xml:space="preserve" text-anchor="start" x="563.75" y="-280.25" font-family="Times New Roman,serif" font-size="14.00">altitude_m : int</text>
<text xml:space="preserve" text-anchor="start" x="563.75" y="-263.75" font-family="Times New Roman,serif" font-size="14.00">grounded : bool</text>
<text xml:space="preserve" text-anchor="start" x="563.75" y="-247.25" font-family="Times New Roman,serif" font-size="14.00">iframe_timer : float</text>
<text xml:space="preserve" text-anchor="start" x="563.75" y="-230.75" font-family="Times New Roman,serif" font-size="14.00">invincible_timer : float</text>
<text xml:space="preserve" text-anchor="start" x="563.75" y="-214.25" font-family="Times New Roman,serif" font-size="14.00">is_alive : bool</text>
<text xml:space="preserve" text-anchor="start" x="563.75" y="-197.75" font-family="Times New Roman,serif" font-size="14.00">jump_boost_timer : float</text>
<text xml:space="preserve" text-anchor="start" x="563.75" y="-181.25" font-family="Times New Roman,serif" font-size="14.00">just_jumped : bool</text>
<text xml:space="preserve" text-anchor="start" x="563.75" y="-164.75" font-family="Times New Roman,serif" font-size="14.00">just_landed : bool</text>
<text xml:space="preserve" text-anchor="start" x="563.75" y="-148.25" font-family="Times New Roman,serif" font-size="14.00">lives : int</text>
<text xml:space="preserve" text-anchor="start" x="563.75" y="-131.75" font-family="Times New Roman,serif" font-size="14.00">rect : Rect</text>
<text xml:space="preserve" text-anchor="start" x="563.75" y="-115.25" font-family="Times New Roman,serif" font-size="14.00">vx : float</text>
<text xml:space="preserve" text-anchor="start" x="563.75" y="-98.75" font-family="Times New Roman,serif" font-size="14.00">vy : float</text>
<text xml:space="preserve" text-anchor="start" x="563.75" y="-82.25" font-family="Times New Roman,serif" font-size="14.00">x : float, int</text>
<text xml:space="preserve" text-anchor="start" x="563.75" y="-65.75" font-family="Times New Roman,serif" font-size="14.00">y : float</text>
<polyline fill="none" stroke="black" points="555.75,-58 708.25,-58"/>
<text xml:space="preserve" text-anchor="start" x="569.75" y="-41.25" font-family="Times New Roman,serif" font-size="14.00">set_input(): None</text>
<text xml:space="preserve" text-anchor="start" x="569.75" y="-24.75" font-family="Times New Roman,serif" font-size="14.00">take_hit(): None</text>
<text xml:space="preserve" text-anchor="start" x="569.75" y="-8.25" font-family="Times New Roman,serif" font-size="14.00">update(dt: float): None</text>
</g>
<!-- entities.player.Player&#45;&gt;scenes.game.GameScene -->
<g id="edge19" class="edge">
<title>entities.player.Player&#45;&gt;scenes.game.GameScene</title>
<path fill="none" stroke="black" d="M555.5,-308.7C552.68,-313.22 549.85,-317.66 547,-322 537.78,-336.03 527.76,-350.29 517.41,-364.35"/>
<polygon fill="black" stroke="black" points="517.52,-364.2 517.15,-371.41 510.36,-373.83 510.73,-366.63 517.52,-364.2"/>
<text xml:space="preserve" text-anchor="middle" x="549.24" y="-343.2" font-family="Times New Roman,serif" font-size="14.00" fill="green">player</text>
</g>
<!-- engine.physics.Rect -->
<g id="node20" class="node">
<title>engine.physics.Rect</title>
<polygon fill="none" stroke="black" points="6091.5,-66.5 6091.5,-255.5 6182.5,-255.5 6182.5,-66.5 6091.5,-66.5"/>
<text xml:space="preserve" text-anchor="start" x="6124.62" y="-238.75" font-family="Times New Roman,serif" font-size="14.00">Rect</text>
<polyline fill="none" stroke="black" points="6091.5,-231 6182.5,-231"/>
<text xml:space="preserve" text-anchor="start" x="6099.5" y="-214.25" font-family="Times New Roman,serif" font-size="14.00">bottom : float</text>
<text xml:space="preserve" text-anchor="start" x="6099.5" y="-197.75" font-family="Times New Roman,serif" font-size="14.00">h : float</text>
<text xml:space="preserve" text-anchor="start" x="6099.5" y="-181.25" font-family="Times New Roman,serif" font-size="14.00">left : float</text>
<text xml:space="preserve" text-anchor="start" x="6099.5" y="-164.75" font-family="Times New Roman,serif" font-size="14.00">right : float</text>
<text xml:space="preserve" text-anchor="start" x="6099.5" y="-148.25" font-family="Times New Roman,serif" font-size="14.00">top : float</text>
<text xml:space="preserve" text-anchor="start" x="6099.5" y="-131.75" font-family="Times New Roman,serif" font-size="14.00">w : float</text>
<text xml:space="preserve" text-anchor="start" x="6099.5" y="-115.25" font-family="Times New Roman,serif" font-size="14.00">x : float</text>
<text xml:space="preserve" text-anchor="start" x="6099.5" y="-98.75" font-family="Times New Roman,serif" font-size="14.00">y : float</text>
<polyline fill="none" stroke="black" points="6091.5,-91 6182.5,-91"/>
<text xml:space="preserve" text-anchor="start" x="6135.12" y="-74.25" font-family="Times New Roman,serif" font-size="14.00"> </text>
</g>
<!-- entities.platforms.RopePlatform -->
<g id="node21" class="node">
<title>entities.platforms.RopePlatform</title>
<polygon fill="none" stroke="black" points="4377.5,-136.5 4377.5,-185.5 4648.5,-185.5 4648.5,-136.5 4377.5,-136.5"/>
<text xml:space="preserve" text-anchor="start" x="4474.75" y="-168.75" font-family="Times New Roman,serif" font-size="14.00">RopePlatform</text>
<polyline fill="none" stroke="black" points="4377.5,-161 4648.5,-161"/>
<polyline fill="none" stroke="black" points="4377.5,-161 4648.5,-161"/>
<text xml:space="preserve" text-anchor="start" x="4385.5" y="-144.25" font-family="Times New Roman,serif" font-size="14.00">draw(surface: pygame.Surface, camera): None</text>
</g>
<!-- entities.platforms.RopePlatform&#45;&gt;entities.platforms.StandardPlatform -->
<g id="edge13" class="edge">
<title>entities.platforms.RopePlatform&#45;&gt;entities.platforms.StandardPlatform</title>
<path fill="none" stroke="black" d="M4513,-185.9C4513,-231.1 4513,-331.45 4513,-408.56"/>
<polygon fill="none" stroke="black" points="4509.5,-408.24 4513,-418.24 4516.5,-408.24 4509.5,-408.24"/>
</g>
<!-- entities.hazards.SprayWater -->
<g id="node22" class="node">
<title>entities.hazards.SprayWater</title>
<polygon fill="none" stroke="black" points="2749.5,-91.25 2749.5,-230.75 3020.5,-230.75 3020.5,-91.25 2749.5,-91.25"/>
<text xml:space="preserve" text-anchor="start" x="2853.12" y="-214" font-family="Times New Roman,serif" font-size="14.00">SprayWater</text>
<polyline fill="none" stroke="black" points="2749.5,-206.25 3020.5,-206.25"/>
<text xml:space="preserve" text-anchor="start" x="2854.62" y="-189.5" font-family="Times New Roman,serif" font-size="14.00">dead : bool</text>
<text xml:space="preserve" text-anchor="start" x="2854.62" y="-173" font-family="Times New Roman,serif" font-size="14.00">kind : str</text>
<text xml:space="preserve" text-anchor="start" x="2854.62" y="-156.5" font-family="Times New Roman,serif" font-size="14.00">vx : float</text>
<text xml:space="preserve" text-anchor="start" x="2854.62" y="-140" font-family="Times New Roman,serif" font-size="14.00">x</text>
<polyline fill="none" stroke="black" points="2749.5,-132.25 3020.5,-132.25"/>
<text xml:space="preserve" text-anchor="start" x="2757.5" y="-115.5" font-family="Times New Roman,serif" font-size="14.00">draw(surface: pygame.Surface, camera): None</text>
<text xml:space="preserve" text-anchor="start" x="2757.5" y="-99" font-family="Times New Roman,serif" font-size="14.00">update(dt: float, camera): None</text>
</g>
<!-- entities.hazards.SprayWater&#45;&gt;entities.hazards.Hazard -->
<g id="edge4" class="edge">
<title>entities.hazards.SprayWater&#45;&gt;entities.hazards.Hazard</title>
<path fill="none" stroke="black" d="M2856.18,-231.12C2836.39,-278.57 2809.69,-342.62 2786.87,-397.34"/>
<polygon fill="none" stroke="black" points="2783.71,-395.82 2783.09,-406.4 2790.17,-398.52 2783.71,-395.82"/>
</g>
<!-- entities.platforms.StickyTapePlatform -->
<g id="node24" class="node">
<title>entities.platforms.StickyTapePlatform</title>
<polygon fill="none" stroke="black" points="4666.5,-128.25 4666.5,-193.75 4937.5,-193.75 4937.5,-128.25 4666.5,-128.25"/>
<text xml:space="preserve" text-anchor="start" x="4747.62" y="-177" font-family="Times New Roman,serif" font-size="14.00">StickyTapePlatform</text>
<polyline fill="none" stroke="black" points="4666.5,-169.25 4937.5,-169.25"/>
<polyline fill="none" stroke="black" points="4666.5,-169.25 4937.5,-169.25"/>
<text xml:space="preserve" text-anchor="start" x="4674.5" y="-152.5" font-family="Times New Roman,serif" font-size="14.00">draw(surface: pygame.Surface, camera): None</text>
<text xml:space="preserve" text-anchor="start" x="4674.5" y="-136" font-family="Times New Roman,serif" font-size="14.00">on_landed(player): None</text>
</g>
<!-- entities.platforms.StickyTapePlatform&#45;&gt;entities.platforms.StandardPlatform -->
<g id="edge14" class="edge">
<title>entities.platforms.StickyTapePlatform&#45;&gt;entities.platforms.StandardPlatform</title>
<path fill="none" stroke="black" d="M4775.33,-194.09C4734.78,-242.89 4655.92,-337.78 4595.2,-410.83"/>
<polygon fill="none" stroke="black" points="4592.56,-408.54 4588.86,-418.47 4597.95,-413.01 4592.56,-408.54"/>
</g>
<!-- entities.platforms.SwingingPlatform -->
<g id="node25" class="node">
<title>entities.platforms.SwingingPlatform</title>
<polygon fill="none" stroke="black" points="4955.5,-116 4955.5,-206 5226.5,-206 5226.5,-116 4955.5,-116"/>
<text xml:space="preserve" text-anchor="start" x="5041.12" y="-189.25" font-family="Times New Roman,serif" font-size="14.00">SwingingPlatform</text>
<polyline fill="none" stroke="black" points="4955.5,-181.5 5226.5,-181.5"/>
<text xml:space="preserve" text-anchor="start" x="5087.62" y="-164.75" font-family="Times New Roman,serif" font-size="14.00">x</text>
<polyline fill="none" stroke="black" points="4955.5,-157 5226.5,-157"/>
<text xml:space="preserve" text-anchor="start" x="4963.5" y="-140.25" font-family="Times New Roman,serif" font-size="14.00">draw(surface: pygame.Surface, camera): None</text>
<text xml:space="preserve" text-anchor="start" x="4963.5" y="-123.75" font-family="Times New Roman,serif" font-size="14.00">update(dt: float): None</text>
</g>
<!-- entities.platforms.SwingingPlatform&#45;&gt;entities.platforms.StandardPlatform -->
<g id="edge15" class="edge">
<title>entities.platforms.SwingingPlatform&#45;&gt;entities.platforms.StandardPlatform</title>
<path fill="none" stroke="black" d="M5059.72,-206.17C5033.03,-241.29 4991.91,-289.72 4947,-322 4859.56,-384.84 4747.78,-432.58 4659.57,-464.19"/>
<polygon fill="none" stroke="black" points="4658.61,-460.81 4650.36,-467.46 4660.95,-467.41 4658.61,-460.81"/>
</g>
<!-- entities.items.TunaCan -->
<g id="node26" class="node">
<title>entities.items.TunaCan</title>
<polygon fill="none" stroke="black" points="1593.5,-116 1593.5,-206 1864.5,-206 1864.5,-116 1593.5,-116"/>
<text xml:space="preserve" text-anchor="start" x="1704.25" y="-189.25" font-family="Times New Roman,serif" font-size="14.00">TunaCan</text>
<polyline fill="none" stroke="black" points="1593.5,-181.5 1864.5,-181.5"/>
<text xml:space="preserve" text-anchor="start" x="1704.62" y="-164.75" font-family="Times New Roman,serif" font-size="14.00">kind : str</text>
<polyline fill="none" stroke="black" points="1593.5,-157 1864.5,-157"/>
<text xml:space="preserve" text-anchor="start" x="1601.5" y="-140.25" font-family="Times New Roman,serif" font-size="14.00">apply(player): int</text>
<text xml:space="preserve" text-anchor="start" x="1601.5" y="-123.75" font-family="Times New Roman,serif" font-size="14.00">draw(surface: pygame.Surface, camera): None</text>
</g>
<!-- entities.items.TunaCan&#45;&gt;entities.items.Item -->
<g id="edge10" class="edge">
<title>entities.items.TunaCan&#45;&gt;entities.items.Item</title>
<path fill="none" stroke="black" d="M1694.2,-206.28C1666.41,-240.11 1625.39,-286.76 1584,-322 1539.9,-359.55 1487.84,-395.54 1440.13,-425.79"/>
<polygon fill="none" stroke="black" points="1438.53,-422.66 1431.93,-430.96 1442.26,-428.59 1438.53,-422.66"/>
</g>
<!-- entities.hazards.Vacuum -->
<g id="node27" class="node">
<title>entities.hazards.Vacuum</title>
<polygon fill="none" stroke="black" points="3038.5,-91.25 3038.5,-230.75 3309.5,-230.75 3309.5,-91.25 3038.5,-91.25"/>
<text xml:space="preserve" text-anchor="start" x="3151.5" y="-214" font-family="Times New Roman,serif" font-size="14.00">Vacuum</text>
<polyline fill="none" stroke="black" points="3038.5,-206.25 3309.5,-206.25"/>
<text xml:space="preserve" text-anchor="start" x="3135.38" y="-189.5" font-family="Times New Roman,serif" font-size="14.00">SPEED : float</text>
<text xml:space="preserve" text-anchor="start" x="3135.38" y="-173" font-family="Times New Roman,serif" font-size="14.00">kind : str</text>
<text xml:space="preserve" text-anchor="start" x="3135.38" y="-156.5" font-family="Times New Roman,serif" font-size="14.00">lethal : bool</text>
<text xml:space="preserve" text-anchor="start" x="3135.38" y="-140" font-family="Times New Roman,serif" font-size="14.00">y</text>
<polyline fill="none" stroke="black" points="3038.5,-132.25 3309.5,-132.25"/>
<text xml:space="preserve" text-anchor="start" x="3046.5" y="-115.5" font-family="Times New Roman,serif" font-size="14.00">draw(surface: pygame.Surface, camera): None</text>
<text xml:space="preserve" text-anchor="start" x="3046.5" y="-99" font-family="Times New Roman,serif" font-size="14.00">update(dt: float, camera): None</text>
</g>
<!-- entities.hazards.Vacuum&#45;&gt;entities.hazards.Hazard -->
<g id="edge5" class="edge">
<title>entities.hazards.Vacuum&#45;&gt;entities.hazards.Hazard</title>
<path fill="none" stroke="black" d="M3118.32,-231.08C3092.72,-260.75 3060.97,-294.78 3029,-322 2984.9,-359.55 2932.84,-395.54 2885.13,-425.79"/>
<polygon fill="none" stroke="black" points="2883.53,-422.66 2876.93,-430.96 2887.26,-428.59 2883.53,-422.66"/>
</g>
<!-- entities.hazards.YarnBall -->
<g id="node28" class="node">
<title>entities.hazards.YarnBall</title>
<polygon fill="none" stroke="black" points="3327.5,-99.5 3327.5,-222.5 3598.5,-222.5 3598.5,-99.5 3327.5,-99.5"/>
<text xml:space="preserve" text-anchor="start" x="3438.62" y="-205.75" font-family="Times New Roman,serif" font-size="14.00">YarnBall</text>
<polyline fill="none" stroke="black" points="3327.5,-198 3598.5,-198"/>
<text xml:space="preserve" text-anchor="start" x="3438.25" y="-181.25" font-family="Times New Roman,serif" font-size="14.00">kind : str</text>
<text xml:space="preserve" text-anchor="start" x="3438.25" y="-164.75" font-family="Times New Roman,serif" font-size="14.00">vy : float</text>
<text xml:space="preserve" text-anchor="start" x="3438.25" y="-148.25" font-family="Times New Roman,serif" font-size="14.00">y</text>
<polyline fill="none" stroke="black" points="3327.5,-140.5 3598.5,-140.5"/>
<text xml:space="preserve" text-anchor="start" x="3335.5" y="-123.75" font-family="Times New Roman,serif" font-size="14.00">draw(surface: pygame.Surface, camera): None</text>
<text xml:space="preserve" text-anchor="start" x="3335.5" y="-107.25" font-family="Times New Roman,serif" font-size="14.00">update(dt: float, camera): None</text>
</g>
<!-- entities.hazards.YarnBall&#45;&gt;entities.hazards.Hazard -->
<g id="edge6" class="edge">
<title>entities.hazards.YarnBall&#45;&gt;entities.hazards.Hazard</title>
<path fill="none" stroke="black" d="M3420.41,-222.84C3394.25,-256.24 3358.13,-296.03 3318,-322 3185.15,-407.96 3009.59,-457.64 2886.95,-484.05"/>
<polygon fill="none" stroke="black" points="2886.53,-480.56 2877.47,-486.06 2887.98,-487.41 2886.53,-480.56"/>
</g>
</g>
</svg>
