<?xml version="1.0" encoding="UTF-8" standalone="no"?>
<!DOCTYPE svg PUBLIC "-//W3C//DTD SVG 1.1//EN"
 "http://www.w3.org/Graphics/SVG/1.1/DTD/svg11.dtd">
<!-- Generated by graphviz version 14.1.5 (20260411.2331)
 -->
<!-- Title: packages_Dongles Pages: 1 -->
<svg width="1321pt" height="260pt"
 viewBox="0.00 0.00 1321.00 260.00" xmlns="http://www.w3.org/2000/svg" xmlns:xlink="http://www.w3.org/1999/xlink">
<g id="graph0" class="graph" transform="scale(1 1) rotate(0) translate(4 256)">
<title>packages_Dongles</title>
<polygon fill="white" stroke="none" points="-4,4 -4,-256 1316.62,-256 1316.62,4 -4,4"/>
<!-- engine -->
<g id="node1" class="node">
<title>engine</title>
<polygon fill="none" stroke="black" points="54,-108 0,-108 0,-72 54,-72 54,-108"/>
<text xml:space="preserve" text-anchor="start" x="9" y="-85.5" font-family="Times New Roman,serif" font-size="14.00">engine</text>
</g>
<!-- engine.audio -->
<g id="node2" class="node">
<title>engine.audio</title>
<polygon fill="none" stroke="black" points="157.88,-108 72.12,-108 72.12,-72 157.88,-72 157.88,-108"/>
<text xml:space="preserve" text-anchor="start" x="80.12" y="-85.5" font-family="Times New Roman,serif" font-size="14.00">engine.audio</text>
</g>
<!-- engine.camera -->
<g id="node3" class="node">
<title>engine.camera</title>
<polygon fill="none" stroke="black" points="271.75,-108 176.25,-108 176.25,-72 271.75,-72 271.75,-108"/>
<text xml:space="preserve" text-anchor="start" x="184.25" y="-85.5" font-family="Times New Roman,serif" font-size="14.00">engine.camera</text>
</g>
<!-- engine.highscore -->
<g id="node4" class="node">
<title>engine.highscore</title>
<polygon fill="none" stroke="black" points="628.12,-36 519.88,-36 519.88,0 628.12,0 628.12,-36"/>
<text xml:space="preserve" text-anchor="start" x="527.88" y="-13.5" font-family="Times New Roman,serif" font-size="14.00">engine.highscore</text>
</g>
<!-- engine.input -->
<g id="node5" class="node">
<title>engine.input</title>
<polygon fill="none" stroke="black" points="373.75,-108 290.25,-108 290.25,-72 373.75,-72 373.75,-108"/>
<text xml:space="preserve" text-anchor="start" x="298.25" y="-85.5" font-family="Times New Roman,serif" font-size="14.00">engine.input</text>
</g>
<!-- engine.physics -->
<g id="node6" class="node">
<title>engine.physics</title>
<polygon fill="none" stroke="black" points="600.12,-252 503.88,-252 503.88,-216 600.12,-216 600.12,-252"/>
<text xml:space="preserve" text-anchor="start" x="511.88" y="-229.5" font-family="Times New Roman,serif" font-size="14.00">engine.physics</text>
</g>
<!-- entities -->
<g id="node7" class="node">
<title>entities</title>
<polygon fill="none" stroke="black" points="701.5,-36 646.5,-36 646.5,0 701.5,0 701.5,-36"/>
<text xml:space="preserve" text-anchor="start" x="654.5" y="-13.5" font-family="Times New Roman,serif" font-size="14.00">entities</text>
</g>
<!-- entities.hazards -->
<g id="node8" class="node">
<title>entities.hazards</title>
<polygon fill="none" stroke="black" points="490,-180 390,-180 390,-144 490,-144 490,-180"/>
<text xml:space="preserve" text-anchor="start" x="398" y="-157.5" font-family="Times New Roman,serif" font-size="14.00">entities.hazards</text>
</g>
<!-- entities.hazards&#45;&gt;engine.physics -->
<g id="edge1" class="edge">
<title>entities.hazards&#45;&gt;engine.physics</title>
<path fill="none" stroke="black" d="M467.97,-180.48C482.25,-189.4 499.79,-200.37 515.15,-209.97"/>
<polygon fill="black" stroke="black" points="523.35,-215.09 512.48,-213.61 520.14,-213.09 514.87,-209.79 514.87,-209.79 514.87,-209.79 520.14,-213.09 517.25,-205.98 523.35,-215.09"/>
</g>
<!-- entities.items -->
<g id="node9" class="node">
<title>entities.items</title>
<polygon fill="none" stroke="black" points="596.38,-180 507.62,-180 507.62,-144 596.38,-144 596.38,-180"/>
<text xml:space="preserve" text-anchor="start" x="515.62" y="-157.5" font-family="Times New Roman,serif" font-size="14.00">entities.items</text>
</g>
<!-- entities.items&#45;&gt;engine.physics -->
<g id="edge2" class="edge">
<title>entities.items&#45;&gt;engine.physics</title>
<path fill="none" stroke="black" d="M552,-180.3C552,-187.68 552,-196.48 552,-204.75"/>
<polygon fill="black" stroke="black" points="552,-214.68 547.5,-204.68 552,-210.9 552,-204.68 552,-204.68 552,-204.68 552,-210.9 556.5,-204.68 552,-214.68"/>
</g>
<!-- entities.platforms -->
<g id="node10" class="node">
<title>entities.platforms</title>
<polygon fill="none" stroke="black" points="836.62,-180 725.38,-180 725.38,-144 836.62,-144 836.62,-180"/>
<text xml:space="preserve" text-anchor="start" x="733.38" y="-157.5" font-family="Times New Roman,serif" font-size="14.00">entities.platforms</text>
</g>
<!-- entities.platforms&#45;&gt;engine.physics -->
<g id="edge3" class="edge">
<title>entities.platforms&#45;&gt;engine.physics</title>
<path fill="none" stroke="black" d="M724.98,-180.12C690.42,-190.69 646.14,-204.22 611.04,-214.95"/>
<polygon fill="black" stroke="black" points="601.63,-217.83 609.87,-210.6 605.24,-216.73 611.19,-214.91 611.19,-214.91 611.19,-214.91 605.24,-216.73 612.5,-219.21 601.63,-217.83"/>
</g>
<!-- entities.player -->
<g id="node11" class="node">
<title>entities.player</title>
<polygon fill="none" stroke="black" points="707.25,-180 614.75,-180 614.75,-144 707.25,-144 707.25,-180"/>
<text xml:space="preserve" text-anchor="start" x="622.75" y="-157.5" font-family="Times New Roman,serif" font-size="14.00">entities.player</text>
</g>
<!-- entities.player&#45;&gt;engine.physics -->
<g id="edge4" class="edge">
<title>entities.player&#45;&gt;engine.physics</title>
<path fill="none" stroke="black" d="M633.78,-180.48C620.02,-189.32 603.13,-200.16 588.29,-209.7"/>
<polygon fill="black" stroke="black" points="579.9,-215.08 585.89,-205.89 583.08,-213.04 588.32,-209.68 588.32,-209.68 588.32,-209.68 583.08,-213.04 590.75,-213.46 579.9,-215.08"/>
</g>
<!-- entities.player_render -->
<g id="node12" class="node">
<title>entities.player_render</title>
<polygon fill="none" stroke="black" points="715.88,-108 582.12,-108 582.12,-72 715.88,-72 715.88,-108"/>
<text xml:space="preserve" text-anchor="start" x="590.12" y="-85.5" font-family="Times New Roman,serif" font-size="14.00">entities.player_render</text>
</g>
<!-- scenes -->
<g id="node13" class="node">
<title>scenes</title>
<polygon fill="none" stroke="black" points="774,-36 720,-36 720,0 774,0 774,-36"/>
<text xml:space="preserve" text-anchor="start" x="729.38" y="-13.5" font-family="Times New Roman,serif" font-size="14.00">scenes</text>
</g>
<!-- scenes._hud -->
<g id="node14" class="node">
<title>scenes._hud</title>
<polygon fill="none" stroke="black" points="874,-36 792,-36 792,0 874,0 874,-36"/>
<text xml:space="preserve" text-anchor="start" x="800" y="-13.5" font-family="Times New Roman,serif" font-size="14.00">scenes._hud</text>
</g>
<!-- scenes.game -->
<g id="node15" class="node">
<title>scenes.game</title>
<polygon fill="none" stroke="black" points="501.5,-36 416.5,-36 416.5,0 501.5,0 501.5,-36"/>
<text xml:space="preserve" text-anchor="start" x="424.5" y="-13.5" font-family="Times New Roman,serif" font-size="14.00">scenes.game</text>
</g>
<!-- scenes.game&#45;&gt;engine -->
<g id="edge5" class="edge">
<title>scenes.game&#45;&gt;engine</title>
<path fill="none" stroke="black" d="M416.2,-20.43C344.53,-23.74 196,-34.53 64.79,-72"/>
<polygon fill="black" stroke="black" points="55.34,-74.76 63.68,-67.64 58.97,-73.7 64.94,-71.96 64.94,-71.96 64.94,-71.96 58.97,-73.7 66.2,-76.28 55.34,-74.76"/>
</g>
<!-- scenes.game&#45;&gt;engine.audio -->
<g id="edge6" class="edge">
<title>scenes.game&#45;&gt;engine.audio</title>
<path fill="none" stroke="black" d="M416.05,-24.92C360.89,-32.93 262.09,-48.66 169.02,-71.67"/>
<polygon fill="black" stroke="black" points="159.46,-74.06 168.07,-67.27 163.13,-73.14 169.16,-71.63 169.16,-71.63 169.16,-71.63 163.13,-73.14 170.26,-76 159.46,-74.06"/>
</g>
<!-- scenes.game&#45;&gt;engine.camera -->
<g id="edge7" class="edge">
<title>scenes.game&#45;&gt;engine.camera</title>
<path fill="none" stroke="black" d="M416.2,-31.74C382.47,-41.78 333.95,-56.22 282.81,-71.46"/>
<polygon fill="black" stroke="black" points="273.37,-74.27 281.67,-67.11 276.99,-73.19 282.95,-71.42 282.95,-71.42 282.95,-71.42 276.99,-73.19 284.24,-75.73 273.37,-74.27"/>
</g>
<!-- scenes.game&#45;&gt;engine.input -->
<g id="edge8" class="edge">
<title>scenes.game&#45;&gt;engine.input</title>
<path fill="none" stroke="black" d="M427.28,-36.48C410.79,-45.57 390.45,-56.78 372.8,-66.51"/>
<polygon fill="black" stroke="black" points="364.38,-71.15 370.97,-62.38 367.69,-69.33 373.14,-66.32 373.14,-66.32 373.14,-66.32 367.69,-69.33 375.31,-70.27 364.38,-71.15"/>
</g>
<!-- scenes.game&#45;&gt;engine.physics -->
<g id="edge9" class="edge">
<title>scenes.game&#45;&gt;engine.physics</title>
<path fill="none" stroke="black" d="M443.56,-36.48C424.52,-59.33 393.18,-101.46 381,-144 376.59,-159.38 371.51,-167.12 381,-180 406.43,-214.5 454.07,-227.21 492.63,-231.6"/>
<polygon fill="black" stroke="black" points="502.53,-232.55 492.15,-236.07 498.77,-232.19 492.58,-231.59 492.58,-231.59 492.58,-231.59 498.77,-232.19 493.01,-227.11 502.53,-232.55"/>
</g>
<!-- scenes.game&#45;&gt;entities.hazards -->
<g id="edge10" class="edge">
<title>scenes.game&#45;&gt;entities.hazards</title>
<path fill="none" stroke="black" d="M456.67,-36.41C453.45,-60.5 447.59,-104.25 443.75,-132.97"/>
<polygon fill="black" stroke="black" points="442.45,-142.68 439.32,-132.17 442.95,-138.93 443.78,-132.77 443.78,-132.77 443.78,-132.77 442.95,-138.93 448.24,-133.37 442.45,-142.68"/>
</g>
<!-- scenes.game&#45;&gt;entities.items -->
<g id="edge11" class="edge">
<title>scenes.game&#45;&gt;entities.items</title>
<path fill="none" stroke="black" d="M465.48,-36.24C472.88,-54.82 486.04,-84.82 502,-108 508.67,-117.69 517.1,-127.33 525.12,-135.69"/>
<polygon fill="black" stroke="black" points="532.07,-142.7 521.83,-138.76 529.41,-140.01 525.03,-135.59 525.03,-135.59 525.03,-135.59 529.41,-140.01 528.22,-132.43 532.07,-142.7"/>
</g>
<!-- scenes.game&#45;&gt;entities.platforms -->
<g id="edge12" class="edge">
<title>scenes.game&#45;&gt;entities.platforms</title>
<path fill="none" stroke="black" d="M486.54,-36.32C501.59,-46.19 520.32,-59.13 536,-72 553.74,-86.56 552.97,-96.82 573,-108 627.32,-138.32 650.16,-128.84 714.33,-143.71"/>
<polygon fill="black" stroke="black" points="723.81,-146.03 713.02,-148.02 720.13,-145.13 714.09,-143.65 714.09,-143.65 714.09,-143.65 720.13,-145.13 715.16,-139.28 723.81,-146.03"/>
</g>
<!-- scenes.game&#45;&gt;entities.player -->
<g id="edge13" class="edge">
<title>scenes.game&#45;&gt;entities.player</title>
<path fill="none" stroke="black" d="M473.09,-36.11C492.01,-58.8 524.98,-97.22 540,-108 559.37,-121.91 582.97,-133.26 604.17,-141.84"/>
<polygon fill="black" stroke="black" points="613.21,-145.39 602.26,-145.93 609.69,-144.01 603.9,-141.74 603.9,-141.74 603.9,-141.74 609.69,-144.01 605.54,-137.55 613.21,-145.39"/>
</g>
<!-- scenes.game&#45;&gt;entities.player_render -->
<g id="edge14" class="edge">
<title>scenes.game&#45;&gt;entities.player_render</title>
<path fill="none" stroke="black" d="M501.64,-34.71C528.14,-44.47 562.56,-57.15 591.46,-67.8"/>
<polygon fill="black" stroke="black" points="600.69,-71.2 589.75,-71.97 597.14,-69.9 591.31,-67.75 591.31,-67.75 591.31,-67.75 597.14,-69.9 592.86,-63.52 600.69,-71.2"/>
</g>
<!-- world.difficulty -->
<g id="node19" class="node">
<title>world.difficulty</title>
<polygon fill="none" stroke="black" points="955.75,-180 854.25,-180 854.25,-144 955.75,-144 955.75,-180"/>
<text xml:space="preserve" text-anchor="start" x="862.25" y="-157.5" font-family="Times New Roman,serif" font-size="14.00">world.difficulty</text>
</g>
<!-- scenes.game&#45;&gt;world.difficulty -->
<g id="edge15" class="edge">
<title>scenes.game&#45;&gt;world.difficulty</title>
<path fill="none" stroke="black" d="M501.94,-33.8C504.99,-34.62 508.03,-35.36 511,-36 583.99,-51.68 781.07,-33.46 845,-72 868.24,-86.01 884.45,-112.88 894.12,-133.44"/>
<polygon fill="black" stroke="black" points="898.08,-142.41 889.92,-135.08 896.55,-138.95 894.04,-133.26 894.04,-133.26 894.04,-133.26 896.55,-138.95 898.15,-131.44 898.08,-142.41"/>
</g>
<!-- world.generator -->
<g id="node20" class="node">
<title>world.generator</title>
<polygon fill="none" stroke="black" points="836.12,-108 733.88,-108 733.88,-72 836.12,-72 836.12,-108"/>
<text xml:space="preserve" text-anchor="start" x="741.88" y="-85.5" font-family="Times New Roman,serif" font-size="14.00">world.generator</text>
</g>
<!-- scenes.game&#45;&gt;world.generator -->
<g id="edge16" class="edge">
<title>scenes.game&#45;&gt;world.generator</title>
<path fill="none" stroke="black" d="M501.99,-33.6C505.02,-34.46 508.05,-35.27 511,-36 601.27,-58.22 628.92,-51.38 722.56,-71.6"/>
<polygon fill="black" stroke="black" points="732.19,-73.72 721.46,-75.96 728.5,-72.91 722.43,-71.57 722.43,-71.57 722.43,-71.57 728.5,-72.91 723.4,-67.17 732.19,-73.72"/>
</g>
<!-- scenes.gameover -->
<g id="node16" class="node">
<title>scenes.gameover</title>
<polygon fill="none" stroke="black" points="1001.5,-36 892.5,-36 892.5,0 1001.5,0 1001.5,-36"/>
<text xml:space="preserve" text-anchor="start" x="900.5" y="-13.5" font-family="Times New Roman,serif" font-size="14.00">scenes.gameover</text>
</g>
<!-- scenes.menu -->
<g id="node17" class="node">
<title>scenes.menu</title>
<polygon fill="none" stroke="black" points="1104.88,-36 1019.12,-36 1019.12,0 1104.88,0 1104.88,-36"/>
<text xml:space="preserve" text-anchor="start" x="1027.12" y="-13.5" font-family="Times New Roman,serif" font-size="14.00">scenes.menu</text>
</g>
<!-- world -->
<g id="node18" class="node">
<title>world</title>
<polygon fill="none" stroke="black" points="1177,-36 1123,-36 1123,0 1177,0 1177,-36"/>
<text xml:space="preserve" text-anchor="start" x="1134.25" y="-13.5" font-family="Times New Roman,serif" font-size="14.00">world</text>
</g>
<!-- world.generator&#45;&gt;entities.platforms -->
<g id="edge17" class="edge">
<title>world.generator&#45;&gt;entities.platforms</title>
<path fill="none" stroke="black" d="M784.01,-108.3C783.59,-115.68 783.09,-124.48 782.61,-132.75"/>
<polygon fill="black" stroke="black" points="782.05,-142.68 778.12,-132.44 782.26,-138.9 782.62,-132.7 782.62,-132.7 782.62,-132.7 782.26,-138.9 787.11,-132.95 782.05,-142.68"/>
</g>
<!-- world.generator&#45;&gt;world.difficulty -->
<g id="edge18" class="edge">
<title>world.generator&#45;&gt;world.difficulty</title>
<path fill="none" stroke="black" d="M814.97,-108.48C830.41,-117.49 849.42,-128.58 865.98,-138.24"/>
<polygon fill="black" stroke="black" points="874.36,-143.13 863.45,-141.97 871.09,-141.22 865.72,-138.09 865.72,-138.09 865.72,-138.09 871.09,-141.22 867.99,-134.2 874.36,-143.13"/>
</g>
<!-- world.next_hazard -->
<g id="node21" class="node">
<title>world.next_hazard</title>
<polygon fill="none" stroke="black" points="1312.62,-36 1195.38,-36 1195.38,0 1312.62,0 1312.62,-36"/>
<text xml:space="preserve" text-anchor="start" x="1203.38" y="-13.5" font-family="Times New Roman,serif" font-size="14.00">world.next_hazard</text>
</g>
</g>
</svg>
